Coordinates
version=1
nRows=6
nColumns=46
inDegrees=yes

Units are S.I. units (second, meters, Newtons, ...)
Angles are in degrees.

endheader
time	pelvis_tilt	pelvis_list	pelvis_rotation	pelvis_tx	pelvis_ty	pelvis_tz	bb_angle	bb_tx	bb_ty	bb_tz	hip_flexion_r	hip_adduction_r	hip_rotation_r	knee_angle_r	knee_angle_r_beta	ankle_angle_r	subtalar_angle_r	mtp_angle_r	crank_angle_r	hip_flexion_l	hip_adduction_l	hip_rotation_l	knee_angle_l	knee_angle_l_beta	ankle_angle_l	subtalar_angle_l	mtp_angle_l	crank_angle_l	lumbar_extension	lumbar_bending	lumbar_rotation	arm_flex_r	arm_add_r	arm_rot_r	elbow_flex_r	pro_sup_r	wrist_flex_r	wrist_dev_r	arm_flex_l	arm_add_l	arm_rot_l	elbow_flex_l	pro_sup_l	wrist_flex_l	wrist_dev_l
      0.00500000	     -7.53143252	     -3.79437325	     -2.81684495	      0.17624569	      1.05037705	     -0.31086886	      0.00000000	      0.50000000	      0.00000000	      0.25000000	     79.60291849	     -0.03909481	      2.21947018	     93.90565918	      1.63896294	     15.77164639	     -6.46263479	      0.00000000	      0.00000000	     45.40606953	    -12.23123816	     -0.64355089	     71.74516547	      1.25218936	    -14.14616181	    -11.16567665	      0.00000000	      0.00000000	    -57.44669366	     -0.30207059	      5.85796623	     89.64948311	     -1.49055117	     40.69079350	     16.19857895	     19.75688106	      0.00000000	      0.00000000	     89.25067988	      1.19946799	     38.72770282	     17.62939034	     22.86856784	      0.00000000	      0.00000000
      0.01000000	     -7.59124173	     -3.75994145	     -2.81963327	      0.17630374	      1.05008138	     -0.31078475	      0.00000000	      0.50000000	      0.00000000	      0.25000000	     79.71514703	     -0.04968703	      2.24281312	     93.96061442	      1.63992209	     15.72031789	     -6.48576136	      0.00000000	      0.00000000	     45.50589473	    -12.23747218	     -0.67121489	     71.85780603	      1.25415531	    -13.97290138	    -10.93455504	      0.00000000	      0.00000000	    -57.29628788	     -0.27438848	      5.84252673	     89.65485271	     -1.33425394	     42.22270698	     15.38473670	     19.63961858	      0.00000000	      0.00000000	     89.28056755	      1.16903707	     40.03225075	     16.68259102	     24.22015607	      0.00000000	      0.00000000
      0.01500000	     -7.54926379	     -3.74869862	     -2.76478673	      0.17634515	      1.05014973	     -0.31094795	      0.00000000	      0.50000000	      0.00000000	      0.25000000	     79.66491284	     -0.13555532	      2.24567114	     93.96434388	      1.63998718	     15.77035301	     -6.36265628	      0.00000000	      0.00000000	     45.44742115	    -12.16141271	     -0.64068901	     71.84785378	      1.25398161	    -13.99098684	    -11.06130048	      0.00000000	      0.00000000	    -57.38151883	     -0.24696725	      5.77964931	     89.64667470	     -0.79440844	     36.52217151	     15.74029614	     22.88662474	      0.00000000	      0.00000000	     89.27267106	      1.56255639	     36.40900290	     16.62054215	     26.50213860	      0.00000000	      0.00000000
      0.02000000	     -7.62387418	     -3.77345147	     -2.80361621	      0.17640935	      1.04991856	     -0.31085328	      0.00000000	      0.50000000	      0.00000000	      0.25000000	     79.71449101	     -0.06138956	      2.26573147	     93.95385529	      1.63980412	     15.83260759	     -6.28859626	      0.00000000	      0.00000000	     45.52285432	    -12.20524270	     -0.61190772	     71.89513730	      1.25480686	    -13.81424359	    -10.99422876	      0.00000000	      0.00000000	    -57.24277423	     -0.26823313	      5.87679410	     89.65115244	     -1.33162946	     41.73899490	     15.47759260	     19.70274665	      0.00000000	      0.00000000	     89.27613260	      1.32421029	     40.56107169	     16.26043858	     24.45104926	      0.00000000	      0.00000000
      0.02500000	     -7.34504411	     -3.83377321	     -2.84047485	      0.17628766	      1.05073306	     -0.31071443	      0.00000000	      0.50000000	      0.00000000	      0.25000000	     79.37588436	     -0.03472509	      2.17071671	     93.91990406	      1.63921156	     15.83682223	     -6.42838733	      0.00000000	      0.00000000	     45.13040140	    -12.24255710	     -0.62493129	     71.76982293	      1.25261971	    -13.87913200	    -11.14474226	      0.00000000	      0.00000000	    -57.66822400	     -0.25316390	      5.95476052	     89.64549132	     -1.47884491	     39.91599111	     16.71294351	     21.15954050	      0.00000000	      0.00000000	     89.22982022	      1.13129191	     38.99092489	     17.51794856	     25.70959884	      0.00000000	      0.00000000
      0.03000000	     -7.58373871	     -3.76947874	     -2.88084203	      0.17638238	      1.05022553	     -0.31054858	      0.00000000	      0.50000000	      0.00000000	      0.25000000	     79.68721490	     -0.02168342	      2.26289111	     93.98363760	      1.64032392	     15.82201882	     -6.30040488	      0.00000000	      0.00000000	     45.39075650	    -12.24700522	     -0.67473251	     71.84974662	      1.25401465	    -13.63085681	    -10.86959495	      0.00000000	      0.00000000	    -57.30529356	     -0.31970517	      5.85633115	     89.64731351	     -1.05401002	     39.38015575	     15.51042416	     21.10082097	      0.00000000	      0.00000000	     89.26294924	      1.49458212	     38.66716673	     16.13111235	     25.75697404	      0.00000000	      0.00000000
